<?xml version="1.0" encoding="UTF-8" standalone="no"?>
<!-- Created with Inkscape (http://www.inkscape.org/) -->
<svg
   xmlns:svg="http://www.w3.org/2000/svg"
   xmlns="http://www.w3.org/2000/svg"
   version="1.0"
   width="320"
   height="320"
   id="svg4958">
  <defs
     id="defs4960" />
  <path
     d="M 320,160 A 160,160 0 1 1 0,160 A 160,160 0 1 1 320,160 z"
     id="path2410"
     style="opacity:1;fill:#ffffff;fill-opacity:1;fill-rule:evenodd;stroke:none;stroke-width:2.0999999;stroke-linecap:butt;stroke-linejoin:miter;stroke-miterlimit:4;stroke-dasharray:none;stroke-dashoffset:0;stroke-opacity:1" />
  <g
     id="g2676">
    <path
       d="M 310,160 A 150,150 0 1 1 10,160 A 150,150 0 1 1 310,160 z"
       id="path2658"
       style="opacity:1;fill:#a3238e;fill-opacity:1;fill-rule:evenodd;stroke:none;stroke-width:2.0999999;stroke-linecap:butt;stroke-linejoin:miter;stroke-miterlimit:4;stroke-dasharray:none;stroke-dashoffset:0;stroke-opacity:1" />
    <path
       d="M 272.44758,194.17367 C 272.44758,199.72161 270.42446,201.73222 264.87652,201.73222 L 245.72153,201.73222 C 241.6878,189.13047 230.08301,179.79909 215.96705,179.79909 C 202.10554,179.79909 190.5091,189.13047 186.4712,201.73222 L 129.49845,201.73222 C 125.46472,189.13047 113.61799,179.79909 99.74815,179.79909 C 85.88247,179.79909 74.03574,189.13047 70.24812,201.73222 L 49.829203,201.73222 C 46.045758,201.73222 44.281263,199.72161 44.281263,195.934 L 44.281263,175.26062 C 44.281263,164.16891 54.872405,102.15296 54.872405,102.15296 C 55.372971,98.6198 56.887183,96.60502 60.66646,96.60502 L 264.87652,96.60502 C 270.42446,96.60502 272.44758,98.36951 272.44758,104.16357 L 272.44758,194.17367 z M 240.42804,211.05943 C 240.42804,224.42037 229.57827,235.2618 215.96705,235.2618 C 202.61028,235.2618 191.76886,224.42037 191.76886,211.05943 C 191.76886,197.44404 202.61028,186.60261 215.96705,186.60261 C 229.57827,186.60261 240.42804,197.44404 240.42804,211.05943 z M 124.20496,211.05943 C 124.20496,224.42037 113.35937,235.2618 99.74815,235.2618 C 86.3872,235.2618 75.2955,224.42037 75.2955,211.05943 C 75.2955,197.44404 86.3872,186.60261 99.74815,186.60261 C 113.35937,186.60261 124.20496,197.44404 124.20496,211.05943 z M 215.96705,151.06243 L 259.32441,151.06243 L 259.32441,107.95118 L 215.96705,107.95118 L 215.96705,151.06243 z M 159.74515,151.06243 L 202.85639,151.06243 L 202.85639,107.95118 L 159.74515,107.95118 L 159.74515,151.06243 z M 103.53159,151.06243 L 146.64283,151.06243 L 146.64283,107.95118 L 103.53159,107.95118 L 103.53159,151.06243 z M 90.41676,164.16891 L 90.41676,107.95118 L 69.74756,107.95118 C 68.23752,107.95118 66.46885,107.95118 65.95994,111.48017 L 58.397224,164.16891 L 90.41676,164.16891"
       id="path279"
       style="fill:#ffffff;fill-opacity:1;fill-rule:evenodd;stroke:none" />
  </g>
</svg>
